<?xml version="1.0" standalone="no"?>
<!DOCTYPE svg PUBLIC "-//W3C//DTD SVG 20010904//EN"
 "http://www.w3.org/TR/2001/REC-SVG-20010904/DTD/svg10.dtd">
<svg version="1.0" xmlns="http://www.w3.org/2000/svg"
 width="468.000000pt" height="312.000000pt" viewBox="0 0 468.000000 312.000000"
 preserveAspectRatio="xMidYMid meet">
<metadata>
Created by potrace 1.15, written by Peter Selinger 2001-2017
</metadata>
<g transform="translate(0.000000,312.000000) scale(0.100000,-0.100000)"
fill="#666" stroke="none">
<path d="M331 2743 c-10 -25 -10 -26 3 -10 11 14 21 17 38 11 26 -9 146 -7
228 4 l55 7 -90 6 c-49 4 -120 7 -156 8 -63 1 -66 0 -78 -26z"/>
<path d="M937 2753 c-38 -3 -60 -9 -64 -18 -4 -11 -10 -12 -25 -4 -12 7 -61 8
-136 3 -123 -7 -136 -9 -127 -25 4 -5 1 -9 -5 -9 -6 0 -8 -4 -5 -10 3 -5 30
-11 58 -11 45 -1 48 -2 22 -9 -31 -8 -31 -8 107 -14 55 -3 36 -13 -34 -19 -40
-3 -83 -8 -95 -11 -13 -3 -29 2 -38 10 -13 14 -15 12 -11 -17 3 -30 6 -32 45
-33 22 0 41 4 41 9 0 6 4 4 8 -3 5 -8 16 -10 27 -6 18 7 18 8 -1 15 -16 6 -15
8 9 8 15 1 27 -2 28 -6 0 -5 2 -22 4 -38 l4 -31 -56 -2 c-75 -2 -77 -8 -5 -17
55 -6 60 -9 65 -33 3 -15 4 -28 2 -30 -2 -2 -25 -7 -52 -12 l-48 -8 55 -2 c30
-1 47 -4 37 -7 -12 -3 -17 -12 -15 -26 4 -25 -36 -49 -86 -51 -30 -1 -31 0
-33 44 -1 25 -6 74 -12 110 -9 58 -9 53 -4 -45 3 -60 6 -121 8 -135 2 -14 4
-46 4 -72 1 -27 6 -48 11 -48 6 0 10 6 10 13 0 14 38 54 46 49 2 -1 17 4 32
11 41 20 55 15 63 -21 5 -23 2 -37 -8 -48 -13 -12 -12 -14 9 -11 13 2 23 11
23 20 0 28 12 28 29 1 10 -14 16 -27 14 -28 -4 -3 -424 -37 -452 -36 -15 0
-17 -3 -9 -11 11 -11 277 -16 449 -9 l71 3 83 -63 83 -63 33 36 c28 30 35 33
45 21 18 -22 64 -44 75 -36 27 20 36 42 24 57 -11 13 -10 14 4 9 10 -4 16 -1
17 7 1 8 2 19 4 24 1 6 3 16 3 23 1 6 12 12 25 12 48 0 50 8 43 149 l-7 131
24 0 c13 0 41 11 61 25 25 17 50 25 80 25 58 0 71 -16 56 -69 -6 -23 -7 -47
-3 -54 5 -7 10 1 13 23 3 19 11 34 17 33 7 -2 10 4 7 12 -3 8 2 28 12 44 10
17 15 34 11 37 -12 12 -177 18 -177 6 0 -22 -33 -4 -45 25 -13 31 -19 33 -142
59 -13 2 -23 11 -23 19 0 7 -4 16 -9 19 -5 4 -7 -4 -4 -16 5 -22 5 -23 -10 -3
-8 11 -14 27 -12 36 4 20 -30 55 -39 40 -4 -5 -1 -13 5 -17 8 -4 7 -9 -2 -15
-11 -6 -9 -13 9 -29 27 -26 27 -30 2 -30 -11 0 -20 7 -20 15 0 8 -5 15 -11 15
-5 0 -7 -4 -4 -10 3 -6 -1 -7 -9 -4 -14 5 -14 8 -1 21 16 15 21 48 6 39 -5 -3
-11 6 -14 19 -3 17 1 29 12 35 12 8 8 9 -14 4 -23 -4 -26 -3 -15 5 16 11 -20
12 -153 4z m-67 -127 c0 -74 -3 -86 -25 -110 -33 -35 -75 -36 -75 -1 0 18 7
28 25 35 14 5 29 9 33 9 19 -3 32 2 32 12 0 8 -15 9 -45 5 -44 -7 -45 -7 -45
20 0 25 2 26 40 21 l40 -5 0 49 c0 27 5 49 10 49 6 0 10 -35 10 -84z m76 47
c-6 -6 -46 20 -46 30 0 4 11 0 25 -9 14 -9 24 -19 21 -21z m133 -1 c0 -24 -1
-25 -9 -7 -12 28 -12 47 0 40 6 -3 10 -18 9 -33z m-64 -12 c3 -5 2 -10 -4 -10
-5 0 -13 5 -16 10 -3 6 -2 10 4 10 5 0 13 -4 16 -10z m-92 -37 c-7 -2 -21 -2
-30 0 -10 3 -4 5 12 5 17 0 24 -2 18 -5z m124 -4 c-14 -8 -22 -8 -30 0 -8 8
-3 11 19 11 25 -1 27 -2 11 -11z m43 2 c0 -6 -4 -13 -10 -16 -5 -3 -10 1 -10
9 0 9 5 16 10 16 6 0 10 -4 10 -9z m-145 -35 c-34 -15 -52 -19 -57 -12 -13 19
18 32 82 34 19 1 12 -5 -25 -22z m645 -97 c0 -6 -4 -7 -10 -4 -5 3 -10 11 -10
16 0 6 5 7 10 4 6 -3 10 -11 10 -16z m-726 -7 c2 -4 -4 -9 -15 -9 -11 -1 -17
2 -14 8 7 11 22 12 29 1z m457 -200 c1 -84 -7 -127 -18 -94 -3 6 -9 10 -14 6
-5 -3 -9 7 -9 23 1 15 -2 61 -5 101 -4 45 -3 72 3 72 6 0 12 -6 14 -12 3 -7 3
16 2 52 l-3 65 14 -60 c7 -33 15 -102 16 -153z m-523 146 c-15 -46 -18 -46
-16 -4 1 22 6 36 14 36 10 0 11 -7 2 -32z m89 -95 c-2 -16 -4 -5 -4 22 0 28 2
40 4 28 2 -13 2 -35 0 -50z m-121 7 c1 -21 -1 -38 -5 -38 -14 4 -77 -15 -96
-28 -31 -22 -45 -17 -45 15 0 27 5 30 70 52 39 12 70 26 70 31 0 4 1 8 3 8 1
0 3 -18 3 -40z m434 -130 c11 0 20 -5 20 -11 0 -6 -9 -8 -22 -3 -13 4 -43 7
-68 6 l-45 -1 40 18 c33 15 41 15 48 4 4 -7 17 -13 27 -13z m-157 -7 c-7 -2
-21 -2 -30 0 -10 3 -4 5 12 5 17 0 24 -2 18 -5z"/>
<path d="M1291 2314 c0 -11 3 -14 6 -6 3 7 2 16 -1 19 -3 4 -6 -2 -5 -13z"/>
<path d="M2837 2750 c-32 -10 -57 -28 -57 -42 0 -5 11 -19 24 -31 17 -16 25
-36 28 -74 3 -29 1 -53 -3 -53 -5 0 -9 -4 -9 -10 0 -19 46 -33 100 -31 31 1
67 -3 80 -8 23 -9 22 -10 -15 -11 l-40 -1 60 -21 c33 -11 70 -20 83 -20 16 1
22 -4 22 -18 0 -27 16 -26 23 1 4 15 11 20 23 15 9 -4 26 -4 37 0 20 6 20 7 1
21 -18 13 -17 14 11 8 l30 -6 -34 18 c-19 10 -36 23 -38 29 -6 19 158 34 206
19 20 -7 22 -5 17 13 -6 19 -4 20 31 16 27 -3 34 -1 23 6 -9 6 -10 10 -3 10 6
0 15 -4 18 -10 9 -15 25 -12 19 4 -3 8 4 16 20 20 35 9 43 43 18 69 -18 18
-40 22 -154 29 -73 5 -199 22 -280 39 -152 30 -193 33 -241 19z m42 -146 c11
7 170 -65 171 -76 0 -5 -39 -8 -86 -8 -72 0 -85 2 -80 15 3 9 0 15 -9 15 -8 0
-15 5 -15 11 0 5 5 7 10 4 16 -10 42 3 34 16 -5 8 -9 8 -14 -1 -9 -15 -50 8
-50 29 0 11 3 11 15 1 8 -6 19 -9 24 -6z"/>
<path d="M1150 2730 c0 -5 5 -10 11 -10 5 0 7 5 4 10 -3 6 -8 10 -11 10 -2 0
-4 -4 -4 -10z"/>
<path d="M455 2702 c36 -13 54 -15 64 -7 11 7 13 7 8 -2 -4 -6 -2 -15 4 -19
16 -9 30 18 17 33 -7 8 -34 13 -77 13 l-66 -1 50 -17z"/>
<path d="M315 2701 c-3 -5 0 -13 6 -17 7 -4 9 -3 5 4 -3 5 0 13 6 15 9 4 10 6
1 6 -6 1 -14 -3 -18 -8z"/>
<path d="M358 2703 c7 -3 16 -2 19 1 4 3 -2 6 -13 5 -11 0 -14 -3 -6 -6z"/>
<path d="M357 2683 c-4 -3 -2 -12 4 -20 8 -9 8 -13 1 -13 -7 0 -8 -10 -1 -32
5 -18 9 -55 7 -83 -2 -59 22 -285 32 -285 7 0 4 166 -4 178 -2 4 -7 55 -10
115 -6 98 -5 107 11 107 31 -1 48 -24 50 -65 1 -22 4 -80 8 -130 4 -49 6 -97
6 -105 -1 -8 -1 -24 0 -35 1 -11 2 -41 3 -67 1 -27 4 -48 8 -48 4 0 5 -7 1
-16 -4 -12 -2 -15 8 -12 9 3 13 15 11 32 -3 19 0 26 7 22 6 -4 11 -3 11 3 0 5
-5 11 -10 13 -6 2 -13 25 -16 52 -6 48 -6 48 17 36 l24 -11 -22 18 c-13 10
-24 33 -27 53 -17 129 -21 217 -11 228 6 6 45 -9 43 -16 -1 -4 1 -17 6 -29 8
-24 21 -30 31 -13 3 6 2 10 -4 10 -16 0 -8 40 9 41 20 1 -10 13 -72 30 -27 8
-48 17 -48 21 0 4 -11 8 -25 8 -14 0 -25 5 -25 10 0 11 -13 13 -23 3z"/>
<path d="M3403 2539 c-1 -11 5 -19 13 -19 8 0 17 0 21 -1 18 -2 11 19 -10 28
-19 9 -23 8 -24 -8z"/>
<path d="M513 2523 c3 -5 8 -30 11 -56 5 -35 4 -47 -5 -42 -8 5 -8 2 -1 -11 5
-11 12 -44 15 -74 3 -30 8 -71 12 -90 5 -25 4 -31 -4 -20 -11 16 -27 8 -16 -9
13 -23 35 -11 35 19 0 17 7 33 18 39 15 9 15 10 1 11 -28 0 -35 60 -8 60 5 0
9 7 9 15 0 8 -7 15 -15 15 -8 0 -16 8 -16 18 -3 35 1 66 9 74 6 6 1 19 -13 34
-21 22 -42 33 -32 17z"/>
<path d="M3313 2524 c-21 -9 -15 -23 6 -17 15 4 20 0 18 -14 -1 -15 -7 -18
-28 -15 -15 2 -29 -1 -33 -6 -4 -6 2 -8 16 -4 13 3 19 1 15 -5 -4 -5 5 -16 18
-23 14 -7 25 -17 25 -22 0 -5 14 0 30 12 23 17 28 25 20 35 -8 9 -5 14 12 19
22 7 22 8 -8 21 -41 18 -76 25 -91 19z m67 -34 c0 -13 -5 -18 -15 -14 -12 5
-13 10 -4 20 15 19 19 18 19 -6z"/>
<path d="M2918 2493 c7 -3 16 -2 19 1 4 3 -2 6 -13 5 -11 0 -14 -3 -6 -6z"/>
<path d="M331 2464 c0 -11 3 -14 6 -6 3 7 2 16 -1 19 -3 4 -6 -2 -5 -13z"/>
<path d="M3240 2431 c11 -22 51 -37 75 -27 26 10 16 26 -16 26 -17 0 -39 5
-50 11 -19 10 -19 9 -9 -10z"/>
<path d="M332 2425 c0 -11 4 -31 8 -45 l8 -25 0 25 c0 14 -3 34 -8 45 l-9 20
1 -20z"/>
<path d="M1497 2341 c-16 -27 -16 -29 1 -47 11 -12 33 -20 62 -22 l45 -2 -27
15 c-36 20 -35 29 2 22 46 -10 38 17 -12 39 -24 10 -45 20 -48 21 -3 2 -13
-10 -23 -26z"/>
<path d="M341 2318 c-1 -20 4 -40 9 -43 12 -7 12 19 0 55 -7 22 -8 21 -9 -12z"/>
<path d="M384 2224 c3 -9 6 -24 6 -35 0 -10 6 -19 13 -19 9 0 12 11 9 35 -3
23 -9 35 -19 35 -10 0 -13 -6 -9 -16z"/>
<path d="M1565 2227 c-29 -20 -65 -27 -66 -14 0 7 -5 2 -11 -10 -6 -13 -22
-23 -37 -25 -22 -3 -26 -7 -23 -31 3 -27 2 -28 -32 -21 -23 4 -36 2 -36 -5 0
-6 -6 -8 -12 -6 -40 14 -64 12 -64 -4 0 -13 10 -18 36 -20 19 -2 46 -4 60 -6
14 -2 28 -4 32 -4 4 -1 3 -13 -3 -28 -6 -15 -7 -25 -3 -21 6 6 34 -14 34 -25
0 -3 -14 -4 -31 -3 -43 2 -48 -20 -10 -41 37 -22 40 -32 6 -25 -36 6 -31 -14
7 -27 29 -10 33 -9 58 21 16 18 25 40 22 50 -6 24 7 23 35 -4 22 -21 23 -21
17 -3 -9 22 -9 22 85 -41 39 -26 48 -25 32 4 -9 17 -7 20 17 26 15 3 38 15 52
26 24 21 24 21 2 15 -15 -4 -24 -1 -28 9 -3 9 -10 14 -14 11 -5 -3 -12 4 -15
16 -6 19 -7 20 -21 2 -7 -10 -14 -13 -14 -8 0 6 -5 3 -10 -5 -7 -11 -10 -11
-10 -2 0 8 -5 10 -12 6 -7 -4 -23 -9 -37 -10 l-24 -3 22 15 c11 8 28 29 37 45
15 29 15 30 -5 20 -30 -17 -43 -13 -36 8 5 16 2 19 -17 15 -13 -2 -6 3 15 12
39 18 51 36 17 27 -11 -3 -32 -2 -47 2 l-28 8 30 7 c43 11 87 11 81 2 -3 -5 1
-9 8 -9 28 0 3 27 -30 33 -32 6 -33 8 -17 20 23 17 13 18 -12 1z m20 -157 c-3
-5 -25 -10 -48 -9 -33 0 -38 2 -22 9 28 12 78 12 70 0z m-160 -90 c-3 -5 -12
-7 -20 -3 -21 7 -19 13 6 13 11 0 18 -4 14 -10z m50 -10 c3 -5 -1 -10 -9 -10
-9 0 -16 5 -16 10 0 6 4 10 9 10 6 0 13 -4 16 -10z"/>
<path d="M1851 2209 c-6 -18 -11 -45 -11 -61 0 -16 -7 -39 -15 -52 -17 -26
-10 -68 7 -44 7 9 8 1 4 -24 -2 -21 0 -40 5 -43 5 -4 9 0 9 7 0 11 31 12 153
9 83 -3 291 -5 460 -5 344 -1 310 6 291 -65 -6 -19 -3 -22 12 -19 12 2 24 18
32 46 11 32 19 42 35 42 18 0 19 2 7 10 -12 8 -12 10 5 10 20 1 20 1 0 13 -15
8 -21 24 -23 52 -5 74 -12 95 -34 95 -17 0 -19 -6 -18 -52 3 -89 1 -94 -27
-107 -32 -15 -203 -15 -288 -1 -33 5 -76 10 -95 9 l-35 -1 35 -13 35 -13 -46
1 c-26 1 -45 5 -43 8 2 4 -7 9 -21 11 -13 3 -22 1 -19 -3 3 -5 1 -9 -5 -9 -5
0 -12 6 -15 13 -5 9 -7 9 -12 0 -4 -10 -13 -9 -40 2 -18 7 -36 10 -39 5 -3 -4
7 -11 21 -14 15 -4 24 -9 21 -12 -7 -7 -78 23 -99 43 -10 9 -18 11 -18 6 0 -6
-9 -13 -20 -16 -15 -4 -20 0 -20 15 0 17 -3 18 -15 8 -8 -6 -19 -9 -24 -6 -5
4 -12 2 -16 -4 -4 -6 -10 -8 -15 -5 -5 3 -19 1 -30 -5 -16 -8 -20 -8 -20 4 0
8 8 17 18 20 10 3 18 15 18 26 0 18 -3 17 -28 -7 -19 -18 -26 -33 -23 -47 4
-14 0 -12 -10 7 -13 23 -14 39 -6 95 5 37 12 75 16 85 6 13 2 17 -18 17 -19 0
-28 -7 -36 -31z"/>
<path d="M352 2210 c0 -14 2 -19 5 -12 2 6 2 18 0 25 -3 6 -5 1 -5 -13z"/>
<path d="M3016 2200 c-36 -16 -37 -18 -17 -25 13 -4 28 -2 36 5 12 10 19 10
32 -1 15 -13 15 -12 3 11 -7 14 -13 26 -14 27 -1 1 -19 -7 -40 -17z"/>
<path d="M540 2190 c0 -5 7 -10 15 -10 8 0 15 5 15 10 0 6 -7 10 -15 10 -8 0
-15 -4 -15 -10z"/>
<path d="M1690 2185 c-7 -8 -16 -12 -21 -9 -5 3 -5 -5 0 -18 4 -13 6 -29 3
-37 -3 -8 0 -11 7 -7 7 5 9 1 4 -10 -4 -11 -2 -15 4 -11 6 4 13 18 15 32 3 13
1 22 -3 19 -5 -3 -9 4 -9 16 0 12 5 18 10 15 6 -3 10 1 10 9 0 20 -4 20 -20 1z"/>
<path d="M3065 2130 c-3 -5 1 -10 10 -10 9 0 13 5 10 10 -3 6 -8 10 -10 10 -2
0 -7 -4 -10 -10z"/>
<path d="M3117 2110 c9 -11 19 -17 21 -15 6 6 -18 35 -29 35 -5 0 -1 -9 8 -20z"/>
<path d="M1744 2078 c-16 -33 -16 -33 3 -13 11 11 20 26 20 33 0 19 -5 15 -23
-20z"/>
<path d="M1646 2072 l-20 -27 21 18 c21 18 21 18 28 -4 6 -17 9 -19 16 -8 13
20 11 29 -5 29 -8 0 -16 4 -18 9 -1 5 -12 -3 -22 -17z"/>
<path d="M1987 2083 c-12 -12 -7 -19 15 -20 13 -1 18 1 13 5 -6 4 -13 11 -16
15 -3 4 -9 4 -12 0z"/>
<path d="M2500 2045 c0 -9 5 -13 10 -10 6 4 18 1 27 -7 10 -7 14 -8 10 -1 -4
6 -1 14 5 16 8 4 7 6 -4 6 -9 1 -23 4 -32 7 -11 4 -16 1 -16 -11z"/>
<path d="M3210 2040 c0 -16 7 -20 36 -20 21 0 33 -4 29 -10 -4 -6 15 -10 49
-10 31 0 56 5 56 10 0 6 7 10 15 10 8 0 15 6 15 14 0 16 -51 26 -137 26 -56 0
-63 -2 -63 -20z"/>
<path d="M2435 2040 c3 -5 8 -10 11 -10 2 0 4 5 4 10 0 6 -5 10 -11 10 -5 0
-7 -4 -4 -10z"/>
<path d="M1717 2033 c-4 -3 -7 -11 -7 -17 0 -6 5 -5 12 2 6 6 9 14 7 17 -3 3
-9 2 -12 -2z"/>
<path d="M2568 2023 c7 -3 16 -2 19 1 4 3 -2 6 -13 5 -11 0 -14 -3 -6 -6z"/>
<path d="M2638 2023 c12 -2 30 -2 40 0 9 3 -1 5 -23 4 -22 0 -30 -2 -17 -4z"/>
<path d="M2900 2019 c42 -10 149 -8 156 3 3 4 -39 8 -93 7 -77 -1 -91 -3 -63
-10z"/>
<path d="M3074 2020 c-5 -4 109 -30 114 -25 1 1 0 9 -3 17 -4 11 -20 15 -56
14 -28 -1 -53 -3 -55 -6z"/>
<path d="M3447 2016 c-4 -10 -1 -19 9 -23 21 -8 26 1 11 22 -13 16 -14 16 -20
1z"/>
<path d="M2945 1991 c6 -5 19 -11 30 -13 11 -1 23 -7 26 -12 4 -5 12 0 17 11
10 18 7 20 -36 22 -31 1 -44 -1 -37 -8z"/>
<path d="M3070 1992 c0 -5 7 -17 15 -28 13 -16 14 -16 9 -1 -4 11 -1 17 9 17
9 0 19 5 22 10 4 6 -7 10 -24 10 -17 0 -31 -4 -31 -8z"/>
<path d="M1024 1971 c25 -27 4 -37 -91 -45 -288 -23 -581 -185 -730 -403 -60
-88 -98 -153 -89 -153 3 0 17 21 33 48 73 126 112 173 224 267 104 87 236 154
369 188 132 34 190 41 190 23 0 -8 -8 -17 -17 -19 -10 -3 0 -5 22 -5 27 0 34
2 22 7 -16 6 -17 9 -5 18 18 16 158 8 223 -11 27 -8 51 -13 53 -11 2 2 27 -5
55 -16 39 -16 52 -17 58 -7 4 6 6 15 3 19 -5 9 -146 46 -208 55 -26 3 -43 10
-37 14 17 10 -5 25 -53 38 -36 11 -37 10 -22 -7z"/>
<path d="M1715 1950 c-7 -12 2 -12 30 0 19 8 19 9 -2 9 -12 1 -25 -3 -28 -9z"/>
<path d="M3497 1870 c-84 -21 -227 -77 -227 -89 0 -4 5 -12 11 -18 8 -8 20 -5
44 11 79 54 352 117 435 101 13 -2 54 -7 92 -10 132 -9 321 -88 440 -183 198
-158 319 -396 334 -657 11 -179 -33 -363 -123 -525 -58 -102 -214 -266 -310
-325 -68 -41 -83 -56 -30 -29 111 58 269 207 335 317 122 203 173 443 138 645
-35 203 -107 354 -236 495 -105 115 -256 207 -425 258 -104 32 -369 37 -478 9z"/>
<path d="M1018 1873 c12 -2 32 -2 45 0 12 2 2 4 -23 4 -25 0 -35 -2 -22 -4z"/>
<path d="M828 1863 c6 -2 18 -2 25 0 6 3 1 5 -13 5 -14 0 -19 -2 -12 -5z"/>
<path d="M1128 1863 c6 -2 18 -2 25 0 6 3 1 5 -13 5 -14 0 -19 -2 -12 -5z"/>
<path d="M778 1853 c6 -2 18 -2 25 0 6 3 1 5 -13 5 -14 0 -19 -2 -12 -5z"/>
<path d="M1237 1840 c34 -10 68 -21 75 -25 7 -3 4 1 -7 9 -21 18 -79 36 -110
35 -11 0 8 -9 42 -19z"/>
<path d="M1401 1779 c-19 -51 -21 -63 -10 -70 8 -5 22 -6 32 -3 9 3 17 1 17
-5 0 -6 5 -11 11 -11 5 0 7 5 4 10 -9 15 15 12 31 -4 8 -8 14 -22 14 -32 0
-10 7 -26 16 -36 14 -15 15 -20 3 -35 -12 -17 -12 -17 6 -1 18 17 20 17 46 -8
26 -25 27 -25 22 -5 -3 11 -9 21 -14 21 -5 0 -9 7 -9 15 0 8 4 15 10 15 16 0
-43 54 -83 75 -20 11 -37 26 -37 33 0 15 2 14 80 -39 31 -20 62 -44 70 -53 7
-10 27 -26 44 -38 17 -11 1 7 -36 41 -69 63 -87 92 -45 70 34 -18 125 -103
170 -158 36 -45 107 -162 107 -176 0 -8 5 -15 11 -15 5 0 8 -4 4 -9 -3 -5 -1
-12 4 -16 9 -5 40 -101 71 -218 17 -62 7 -299 -15 -382 -23 -87 -85 -223 -139
-303 -61 -92 -203 -226 -302 -284 -99 -58 -215 -102 -314 -118 -41 -6 -82 -13
-90 -15 -8 -1 20 -3 63 -4 48 -1 88 4 105 13 15 7 45 17 67 21 22 3 54 17 70
29 17 12 37 25 45 28 8 3 48 29 89 57 41 28 81 51 89 51 22 0 137 116 190 194
324 469 199 1080 -279 1375 -46 28 -86 51 -89 51 -3 0 -16 -28 -29 -61z m83
-2 c3 4 6 0 6 -7 0 -7 3 -11 6 -7 3 3 15 -3 27 -13 35 -33 15 -30 -42 5 -63
40 -78 54 -35 32 17 -9 34 -13 38 -10z"/>
<path d="M630 1810 c-46 -25 -34 -25 21 0 24 11 37 19 29 19 -8 0 -31 -8 -50
-19z"/>
<path d="M936 1803 c-2 -2 -30 -5 -63 -7 -33 -2 -69 -9 -81 -15 -11 -6 -30
-11 -41 -11 -11 0 -23 -4 -26 -10 -3 -5 -13 -10 -20 -10 -8 0 -42 -13 -74 -29
-33 -16 -63 -26 -67 -22 -4 3 -4 1 -1 -5 4 -6 -14 -21 -41 -34 -26 -13 -51
-29 -55 -37 -5 -7 -13 -10 -19 -7 -7 4 -8 2 -4 -5 4 -7 -2 -15 -16 -20 -13 -6
-19 -10 -14 -10 5 -1 2 -9 -5 -18 -11 -15 -10 -15 8 1 20 16 25 17 40 5 16
-13 17 -12 4 4 -8 9 -12 19 -10 20 2 2 22 17 44 34 51 39 171 103 194 103 9 0
21 4 26 9 12 11 117 43 123 37 2 -3 15 -1 28 4 13 5 64 10 114 12 49 1 87 4
85 7 -5 5 -125 8 -129 4z"/>
<path d="M3700 1779 c0 -6 -18 -10 -42 -8 -24 1 -50 -1 -59 -5 -9 -4 -20 -6
-25 -5 -5 1 -17 -1 -27 -6 -10 -4 -21 -5 -24 -1 -3 3 -12 1 -20 -5 -9 -9 -13
-8 -13 0 0 8 -6 9 -17 3 -10 -5 -31 -12 -48 -16 l-30 -6 25 15 c37 22 5 18
-40 -5 -22 -11 -41 -16 -45 -11 -3 6 11 17 30 27 52 24 36 28 -18 4 l-46 -21
20 -34 c12 -19 23 -35 25 -35 11 0 73 34 70 39 -2 3 6 7 17 7 30 2 69 10 87
18 72 30 280 34 384 6 44 -11 81 -18 84 -16 4 5 -37 17 -118 35 -25 6 -69 11
-97 11 -29 0 -53 5 -53 10 0 6 -4 10 -10 10 -5 0 -10 -5 -10 -11z"/>
<path d="M524 1754 c-18 -14 -18 -15 4 -4 12 6 22 13 22 15 0 8 -5 6 -26 -11z"/>
<path d="M3210 1757 c0 -7 -13 -20 -29 -30 -55 -33 -188 -166 -240 -242 -66
-96 -115 -200 -145 -312 -18 -67 -27 -88 -40 -87 -9 1 -16 -4 -16 -12 0 -8 7
-14 15 -14 9 0 15 -10 15 -26 0 -14 -4 -23 -10 -19 -6 4 -7 11 -4 17 4 6 1 9
-7 6 -8 -3 -19 -15 -26 -29 -10 -19 -10 -25 3 -32 12 -7 12 -11 -5 -25 -11 -9
-29 -41 -40 -71 l-20 -54 46 7 c25 3 56 6 69 6 24 0 24 2 24 97 0 106 17 223
32 223 5 0 6 5 3 10 -15 24 55 185 124 290 51 77 144 174 218 227 54 39 61 47
53 64 -12 22 -20 25 -20 6z m-440 -877 c0 -15 -7 -20 -27 -20 -25 0 -26 0 -8
20 10 11 22 20 27 20 4 0 8 -9 8 -20z"/>
<path d="M421 1688 c-14 -23 -14 -23 8 -4 22 20 25 26 13 26 -4 0 -13 -10 -21
-22z"/>
<path d="M3220 1700 c0 -5 -3 -9 -7 -7 -5 1 -10 -2 -13 -8 -3 -5 -32 -32 -65
-60 -33 -27 -66 -57 -73 -67 -7 -10 -18 -15 -24 -12 -7 4 -8 2 -4 -5 5 -7 -6
-29 -26 -54 -39 -47 -113 -176 -106 -183 3 -2 17 20 33 48 66 124 182 256 283
323 48 31 50 35 22 35 -11 0 -20 -4 -20 -10z"/>
<path d="M4046 1695 c10 -8 23 -15 28 -15 6 0 1 7 -10 15 -10 8 -23 15 -28 15
-6 0 -1 -7 10 -15z"/>
<path d="M3217 1644 c-26 -19 -45 -39 -42 -44 3 -5 0 -12 -6 -16 -8 -4 -9 -3
-5 4 4 7 3 12 -3 12 -17 0 -146 -158 -182 -223 -76 -137 -109 -247 -116 -382
-5 -106 -10 -135 -23 -135 -6 0 -10 34 -11 78 -1 42 -4 67 -7 54 -4 -12 -5
-49 -4 -82 l4 -60 31 1 c18 0 55 4 82 9 70 12 227 50 185 45 -19 -2 -74 -7
-122 -11 -95 -7 -90 -10 -102 51 -4 17 -3 25 1 18 12 -17 42 8 46 37 4 26 21
37 32 21 3 -6 13 -11 21 -11 8 0 13 4 9 9 -3 5 0 13 7 17 7 5 144 9 305 10
244 1 293 -1 293 -12 0 -8 -7 -14 -15 -14 -8 0 -12 -6 -9 -15 4 -9 -3 -16 -21
-21 -14 -3 -24 -9 -21 -12 9 -8 -14 -32 -30 -32 -20 0 -17 18 4 23 13 4 12 5
-5 6 -12 0 -23 -4 -25 -10 -2 -7 -12 -7 -31 2 -21 10 -30 10 -39 1 -9 -9 -6
-12 12 -13 14 0 34 -5 45 -10 18 -9 18 -9 -3 -5 -13 2 -37 0 -55 -6 -18 -6
-79 -18 -137 -28 l-105 -18 65 -1 c36 0 98 6 138 14 40 9 108 15 150 14 143
-2 203 50 154 134 -19 32 -86 68 -75 41 4 -12 -37 -14 -295 -14 -273 1 -302 3
-306 18 -3 9 -5 20 -3 25 1 4 -13 15 -32 25 -25 12 -35 24 -36 43 0 24 1 25
40 18 51 -9 55 -5 15 16 -21 11 -30 21 -26 31 3 9 6 18 6 20 0 2 10 4 23 4 19
1 20 2 5 11 -16 9 -16 12 1 43 40 70 45 76 66 71 11 -3 14 -2 8 1 -20 9 -15
24 23 71 31 38 38 42 52 31 15 -11 15 -11 4 3 -11 15 -6 23 35 58 25 23 53 39
60 37 7 -3 13 1 13 9 0 25 19 16 42 -20 30 -45 42 -45 23 1 -12 30 -52 95 -58
94 -1 0 -24 -16 -50 -36z m-247 -526 c0 -6 -3 -8 -7 -5 -3 4 -13 1 -22 -6 -14
-11 -14 -10 -2 6 15 20 31 22 31 5z"/>
<path d="M345 1618 l-50 -53 53 50 c28 27 52 51 52 52 0 8 -9 -1 -55 -49z"/>
<path d="M1727 1523 c21 -29 46 -62 56 -75 18 -22 18 -22 1 9 -10 18 -35 52
-57 75 l-38 43 38 -52z"/>
<path d="M360 1525 c0 -8 -7 -15 -15 -15 -8 0 -14 -6 -12 -12 1 -7 -3 -12 -10
-11 -6 1 -17 -5 -25 -14 -11 -14 -11 -16 2 -8 20 13 31 13 55 2 18 -9 19 -9 6
7 -12 14 -11 20 9 41 20 21 21 25 7 25 -9 0 -17 -7 -17 -15z"/>
<path d="M280 1445 c5 -21 0 -36 -10 -30 -5 3 -10 -1 -10 -9 0 -22 13 -20 28
5 10 16 11 24 2 33 -6 6 -11 7 -10 1z"/>
<path d="M1827 1365 c15 -30 29 -53 31 -51 4 5 -46 106 -53 106 -3 0 7 -25 22
-55z"/>
<path d="M240 1367 c0 -20 4 -25 15 -21 13 5 13 9 3 23 -7 9 -14 18 -15 20 -2
2 -3 -8 -3 -22z"/>
<path d="M1865 1285 c32 -99 47 -201 48 -314 0 -73 -4 -126 -10 -128 -5 -2 -8
-18 -6 -36 4 -25 2 -29 -6 -17 -8 11 -9 7 -4 -19 4 -23 3 -32 -5 -28 -6 5 -8
-1 -4 -15 4 -15 2 -19 -7 -13 -10 5 -11 2 -6 -14 4 -13 2 -21 -5 -21 -6 0 -8
-4 -5 -10 7 -11 -23 -80 -35 -80 -8 0 -17 -20 -21 -45 -1 -5 -9 -15 -17 -21
-9 -7 -12 -16 -7 -24 5 -9 4 -11 -3 -6 -11 6 -16 -6 -13 -26 0 -5 -5 -7 -12
-5 -6 1 -11 -6 -11 -15 1 -10 -2 -16 -6 -15 -10 3 -101 -99 -95 -107 3 -3 2
-4 -2 -1 -10 8 -33 -16 -26 -28 3 -5 1 -7 -5 -3 -6 3 -18 -4 -27 -16 -8 -13
-18 -22 -20 -20 -10 5 -45 -24 -46 -38 0 -9 -2 -10 -5 -3 -4 8 -15 6 -40 -9
-18 -11 -31 -24 -28 -30 3 -5 0 -9 -7 -7 -27 3 -40 -1 -34 -11 3 -5 0 -7 -8
-4 -8 3 -21 -1 -28 -8 -8 -7 -20 -13 -26 -14 -39 -3 -44 -5 -39 -13 4 -5 -4
-7 -16 -3 -16 4 -19 2 -13 -8 5 -8 4 -11 -3 -7 -12 8 -113 -13 -108 -22 2 -3
-41 -7 -96 -8 -55 -1 -106 -4 -113 -7 -8 -3 -15 -1 -17 4 -2 5 -33 11 -70 12
-36 2 -64 7 -61 12 3 5 -7 6 -23 3 -19 -3 -35 0 -48 11 -11 10 -16 11 -12 4 4
-6 2 -12 -3 -12 -6 0 -11 4 -11 10 0 5 -6 7 -14 4 -19 -7 -149 56 -238 115
-118 78 -206 180 -290 336 -21 39 -38 62 -38 53 0 -10 -4 -18 -10 -18 -15 0
-30 36 -56 134 -21 78 -23 83 -19 38 10 -94 85 -264 166 -373 27 -37 49 -72
49 -78 0 -6 3 -11 8 -11 7 0 80 -60 165 -136 21 -19 50 -34 63 -34 35 0 30 7
-23 34 -49 25 -191 162 -180 173 4 3 32 -19 64 -50 233 -224 601 -306 930
-206 118 36 323 155 308 180 -4 5 0 6 8 3 18 -7 127 110 184 198 103 159 147
310 147 498 0 124 -26 274 -55 318 -9 15 -10 14 -4 -3z m-1710 -740 c14 -30
48 -84 76 -121 27 -36 48 -69 45 -71 -6 -7 -66 49 -66 61 0 4 -13 24 -30 43
-16 18 -30 42 -30 51 0 10 -9 28 -21 41 -18 19 -21 51 -4 51 3 0 17 -25 30
-55z m1535 -169 c0 -2 -8 -10 -17 -17 -16 -13 -17 -12 -4 4 13 16 21 21 21 13z"/>
<path d="M185 1270 c-15 -17 -16 -22 -4 -37 8 -9 9 -14 3 -10 -7 4 -11 -5 -11
-26 l-1 -32 10 28 c5 15 14 27 19 27 4 0 6 6 3 14 -3 8 -1 24 6 35 14 27 -1
27 -25 1z"/>
<path d="M2871 1251 c-13 -20 -25 -52 -26 -71 -2 -19 -6 -62 -9 -95 -5 -56 -5
-55 9 17 9 43 24 101 35 129 12 28 19 53 18 54 -2 1 -14 -14 -27 -34z"/>
<path d="M1765 1260 c-3 -6 1 -7 9 -4 18 7 21 14 7 14 -6 0 -13 -4 -16 -10z"/>
<path d="M4551 1245 c1 -19 18 -51 18 -35 0 8 -4 22 -9 30 -5 8 -9 11 -9 5z"/>
<path d="M3377 1219 c7 -7 15 -10 18 -7 3 3 -2 9 -12 12 -14 6 -15 5 -6 -5z"/>
<path d="M131 1194 c0 -11 3 -14 6 -6 3 7 2 16 -1 19 -3 4 -6 -2 -5 -13z"/>
<path d="M147 1144 c7 -3 9 -12 6 -20 -5 -13 -7 -13 -14 -2 -6 8 -9 -3 -10
-32 0 -25 -1 -71 -2 -102 0 -41 -5 -58 -14 -58 -15 0 -19 -75 -5 -84 5 -3 7
-18 4 -34 -2 -16 1 -33 7 -36 7 -5 9 0 5 11 -5 15 -4 15 7 -1 9 -15 9 -21 1
-24 -7 -2 -12 -8 -12 -13 0 -6 5 -7 10 -4 7 4 9 -3 5 -22 -5 -22 -4 -25 4 -13
10 13 13 12 27 -5 8 -11 13 -28 11 -37 -3 -9 1 -19 8 -22 16 -6 27 18 14 31
-9 9 -16 35 -23 88 -2 11 -6 27 -9 35 -21 58 -23 105 -6 127 6 7 6 12 -1 15
-13 4 -16 68 -7 108 18 78 18 100 0 99 -10 0 -13 -3 -6 -5z m-24 -267 c3 -22
2 -35 -4 -32 -5 4 -9 22 -9 42 0 45 5 40 13 -10z m17 -51 c0 -3 -4 -8 -10 -11
-5 -3 -10 -1 -10 4 0 6 5 11 10 11 6 0 10 -2 10 -4z"/>
<path d="M4582 1120 c0 -14 2 -19 5 -12 2 6 2 18 0 25 -3 6 -5 1 -5 -13z"/>
<path d="M1808 1123 c7 -3 16 -2 19 1 4 3 -2 6 -13 5 -11 0 -14 -3 -6 -6z"/>
<path d="M810 1091 c0 -9 30 -24 36 -18 2 1 -6 8 -16 15 -11 7 -20 8 -20 3z"/>
<path d="M2553 1088 c-29 -4 -65 -16 -81 -26 l-30 -17 22 -26 c20 -23 25 -25
47 -14 41 21 88 28 105 14 12 -10 13 -9 8 5 -4 11 -1 16 10 16 9 0 16 4 16 9
0 5 3 16 6 24 7 19 -34 25 -103 15z"/>
<path d="M22 1060 c0 -14 2 -19 5 -12 2 6 2 18 0 25 -3 6 -5 1 -5 -13z"/>
<path d="M3935 1070 c-3 -6 1 -7 9 -4 18 7 21 14 7 14 -6 0 -13 -4 -16 -10z"/>
<path d="M3739 1032 c22 -43 48 -68 58 -58 4 4 2 11 -6 15 -7 5 -12 10 -12 12
3 19 -15 49 -35 58 l-24 11 19 -38z"/>
<path d="M101 1044 c0 -11 3 -14 6 -6 3 7 2 16 -1 19 -3 4 -6 -2 -5 -13z"/>
<path d="M990 1035 c-7 -8 -9 -15 -6 -15 4 0 -3 -10 -15 -22 -11 -13 -24 -32
-29 -43 -9 -26 7 -63 32 -71 23 -7 89 4 85 14 -1 4 6 18 16 32 15 21 19 23 27
10 15 -23 12 -6 -4 26 -8 15 -13 31 -10 36 3 4 0 8 -5 8 -6 0 -11 -12 -11 -26
0 -15 -4 -23 -11 -18 -6 3 -9 15 -6 25 3 11 2 19 -3 19 -4 0 -11 -17 -15 -37
-4 -21 -10 -32 -12 -25 -3 6 -16 12 -29 12 -28 0 -30 7 -9 30 14 15 29 60 21
60 -2 0 -9 -7 -16 -15z m-17 -102 c-3 -7 -9 -13 -14 -13 -5 0 -9 6 -9 13 0 8
6 14 14 14 8 0 12 -6 9 -14z"/>
<path d="M4591 1004 c0 -11 3 -14 6 -6 3 7 2 16 -1 19 -3 4 -6 -2 -5 -13z"/>
<path d="M1820 990 c-13 -8 -12 -10 3 -10 9 0 17 5 17 10 0 12 -1 12 -20 0z"/>
<path d="M2995 990 c17 -4 44 -8 60 -8 25 0 24 2 -10 9 -51 10 -92 10 -50 -1z"/>
<path d="M2348 933 c-27 -59 -33 -158 -12 -211 34 -84 53 -104 80 -81 11 9 10
15 -6 36 -24 30 -26 53 -5 53 8 0 15 -4 15 -8 0 -5 8 -19 19 -31 15 -17 20
-18 24 -7 6 14 99 83 105 77 2 -1 7 1 10 5 4 4 1 4 -6 0 -8 -5 -16 2 -22 18
-5 14 -11 26 -14 26 -2 0 -18 -14 -36 -30 -68 -64 -112 -48 -112 40 1 56 14
80 44 80 10 0 16 5 13 10 -4 7 -13 6 -26 -1 -27 -14 -37 -3 -21 22 10 16 10
24 1 35 -19 23 -27 17 -51 -33z"/>
<path d="M3103 973 c9 -2 23 -2 30 0 6 3 -1 5 -18 5 -16 0 -22 -2 -12 -5z"/>
<path d="M3168 963 c7 -3 16 -2 19 1 4 3 -2 6 -13 5 -11 0 -14 -3 -6 -6z"/>
<path d="M4583 875 c-14 -111 -58 -259 -75 -248 -7 3 -8 1 -4 -6 10 -16 -3
-53 -16 -45 -6 4 -8 2 -5 -4 10 -15 -3 -43 -16 -35 -6 4 -8 0 -4 -10 3 -9 0
-20 -8 -24 -7 -5 -14 -10 -14 -13 0 -19 -15 -39 -25 -33 -6 3 -8 3 -4 -1 9
-10 -1 -22 -87 -107 -103 -101 -258 -201 -286 -183 -7 4 -9 3 -6 -3 4 -6 -1
-14 -11 -18 -28 -12 -122 -14 -122 -4 0 6 -5 7 -11 3 -8 -4 -3 -12 12 -21 23
-13 22 -14 -16 -7 -81 13 -167 15 -159 2 5 -7 3 -8 -7 -2 -18 11 -40 12 -61 1
-11 -5 -18 -4 -18 3 0 5 -5 10 -11 10 -5 0 -8 -4 -5 -8 3 -5 -1 -9 -9 -9 -8 0
-15 3 -15 7 0 4 -13 5 -30 2 -18 -3 -30 0 -30 7 0 13 -8 12 145 16 132 3 212
18 297 57 31 15 58 25 60 23 2 -2 17 7 33 21 l30 25 -97 -6 c-88 -6 -97 -5
-101 12 -4 16 -5 16 -6 1 -1 -15 -11 -18 -70 -18 -58 0 -70 3 -74 17 -4 17 -5
17 -6 1 -1 -14 -10 -18 -38 -18 -52 0 -61 9 -66 60 l-4 45 -1 -47 -2 -48 -52
-2 c-29 -1 -110 -1 -180 1 -88 2 -128 0 -128 -7 0 -6 -7 -9 -16 -5 -11 4 -12
9 -5 16 16 16 14 42 -2 29 -8 -7 -19 -6 -37 3 -33 19 -41 18 -34 0 8 -20 -22
-9 -48 17 -21 21 -24 36 -4 19 10 -8 16 -9 21 -1 3 5 1 10 -6 10 -7 0 -5 8 6
20 10 11 13 20 7 20 -6 0 -15 -8 -21 -17 -8 -15 -12 -16 -22 -6 -11 11 -10 13
0 13 11 0 11 3 1 15 -7 9 -20 13 -28 10 -16 -6 -42 12 -42 29 0 6 7 2 15 -8 8
-11 15 -15 15 -9 0 5 -10 18 -22 29 -13 12 -18 13 -13 4 5 -9 0 -8 -13 4 -12
11 -22 25 -22 32 0 7 -6 15 -12 17 -10 4 -10 6 -1 6 7 1 19 -11 27 -26 8 -16
15 -23 15 -18 1 6 -13 33 -29 60 -16 28 -30 44 -30 36 0 -8 -2 -12 -5 -9 -13
13 11 39 51 54 56 21 51 29 -6 9 -51 -18 -53 -18 -48 -4 5 16 424 140 445 132
11 -5 14 -3 8 6 -6 10 -2 11 15 6 16 -5 20 -4 15 4 -5 8 2 10 22 6 21 -5 24
-4 13 4 -8 6 -10 11 -5 11 6 0 16 -5 22 -11 6 -6 21 -9 34 -7 21 3 24 8 21 39
-3 30 1 37 22 47 17 8 26 8 26 1 0 -6 5 -7 10 -4 18 11 0 25 -35 25 -20 0 -35
6 -39 15 -3 8 -14 15 -25 15 -14 0 -18 -5 -14 -19 4 -15 -1 -20 -24 -24 l-28
-4 28 -2 c40 -2 37 -36 -5 -50 -98 -31 -501 -151 -509 -151 -17 0 -32 53 -20
73 9 13 8 17 -3 17 -7 0 -16 9 -19 20 -4 16 2 20 42 25 25 3 61 8 79 11 24 4
32 2 27 -6 -4 -7 6 -6 27 3 19 8 101 23 184 33 82 10 142 20 133 22 -9 1 -106
-8 -215 -22 -335 -42 -448 -51 -488 -39 -20 6 -34 8 -32 4 3 -4 1 -13 -5 -21
-6 -11 -9 -11 -10 -2 -1 6 -2 17 -3 23 -3 34 -77 36 -90 4 -5 -14 -4 -14 16 0
26 17 48 20 48 5 0 -5 -6 -10 -13 -10 -7 0 -27 -16 -44 -35 -17 -19 -35 -35
-40 -35 -5 0 -14 -5 -21 -12 -8 -8 -6 -15 9 -29 20 -17 20 -17 -10 -38 -31
-22 -46 -27 -37 -12 4 5 0 11 -6 14 -9 3 -7 11 7 27 12 14 -2 7 -33 -16 -29
-21 -57 -39 -62 -39 -4 0 -12 -4 -17 -9 -5 -5 -2 -6 7 -2 8 4 6 0 -4 -8 -11
-9 -28 -16 -37 -16 -10 0 -21 -4 -24 -10 -16 -25 -23 -3 -27 80 -2 49 -6 92
-9 94 -9 10 -79 -15 -79 -27 0 -7 -23 -21 -50 -32 -28 -11 -46 -21 -41 -23 5
-2 23 4 40 12 39 21 41 20 41 -9 0 -14 8 -53 17 -86 10 -36 13 -63 7 -67 -13
-10 -16 -39 -4 -47 16 -10 12 -45 -5 -45 -12 0 -13 4 -6 19 9 16 7 20 -13 25
-13 3 -26 15 -29 26 -3 12 -11 18 -20 15 -8 -4 -38 3 -67 14 -29 11 -58 18
-63 14 -5 -3 21 -16 59 -27 66 -21 69 -23 67 -52 -1 -27 1 -30 22 -26 18 3 27
-3 39 -27 9 -17 20 -31 24 -32 4 -1 30 -2 59 -3 49 -1 52 0 57 28 4 16 0 41
-8 57 l-14 29 66 46 66 46 50 -18 c67 -24 117 -24 200 -2 39 11 86 21 106 24
35 5 37 3 56 -38 40 -89 179 -278 205 -278 5 0 34 -19 63 -43 170 -133 325
-194 531 -208 144 -10 206 -5 280 21 28 10 61 21 75 24 27 6 114 65 106 73 -2
2 -19 -3 -37 -12 -131 -68 -346 -96 -527 -70 -69 11 -229 64 -279 93 -64 38
-159 110 -207 158 -54 53 -176 223 -176 245 0 17 19 9 25 -10 11 -34 80 -135
134 -193 147 -161 334 -255 552 -279 98 -10 128 -10 216 4 120 20 242 62 332
116 88 53 203 151 197 168 -3 7 0 12 6 10 17 -3 109 123 150 206 20 39 45 102
56 138 23 75 46 214 40 250 -1 13 -8 -21 -15 -76z m-1795 -135 c4 -21 -65
-100 -87 -100 -49 0 -53 77 -6 113 18 13 90 3 93 -13z m-203 -40 c3 -5 1 -10
-4 -10 -6 0 -11 5 -11 10 0 6 2 10 4 10 3 0 8 -4 11 -10z m-336 -42 c-1 -13
-5 -36 -9 -53 -7 -26 -8 -22 -9 23 0 29 3 52 9 52 6 0 9 -10 9 -22z m366 1
c10 -30 -21 -60 -54 -53 -44 11 -45 21 -5 48 47 31 51 32 59 5z m205 -41 c0
-10 -4 -18 -9 -18 -5 0 -24 -3 -42 -6 l-34 -7 22 22 c12 11 27 21 33 21 5 0
10 8 10 18 0 14 2 15 10 2 5 -8 10 -23 10 -32z m64 -14 c9 -20 15 -38 13 -40
-6 -7 -34 29 -41 54 -11 35 9 26 28 -14z m-180 17 c6 -9 -45 -31 -71 -31 -23
0 -9 24 18 31 35 10 47 10 53 0z m-519 -171 c8 -13 -5 -13 -25 0 -13 8 -13 10
2 10 9 0 20 -4 23 -10z m2135 -124 c0 -2 -8 -10 -17 -17 -16 -13 -17 -12 -4 4
13 16 21 21 21 13z m-890 -146 c0 -5 -2 -10 -4 -10 -3 0 -8 5 -11 10 -3 6 -1
10 4 10 6 0 11 -4 11 -10z m10 -30 c0 -5 -2 -10 -4 -10 -3 0 -8 5 -11 10 -3 6
-1 10 4 10 6 0 11 -4 11 -10z m48 -7 c6 -2 12 2 12 7 0 6 9 10 20 10 13 0 18
-5 14 -15 -4 -10 -18 -14 -38 -13 -39 2 -48 7 -40 20 4 5 9 6 13 2 3 -5 12
-10 19 -11z"/>
<path d="M3062 930 c0 -14 2 -19 5 -12 2 6 2 18 0 25 -3 6 -5 1 -5 -13z"/>
<path d="M3295 940 c3 -5 13 -10 21 -10 8 0 14 5 14 10 0 6 -9 10 -21 10 -11
0 -17 -4 -14 -10z"/>
<path d="M3350 940 c0 -5 4 -10 9 -10 6 0 13 5 16 10 3 6 -1 10 -9 10 -9 0
-16 -4 -16 -10z"/>
<path d="M798 933 c7 -3 16 -2 19 1 4 3 -2 6 -13 5 -11 0 -14 -3 -6 -6z"/>
<path d="M3757 923 c6 -16 5 -16 -10 -4 -14 11 -17 11 -17 -1 0 -8 5 -19 12
-26 14 -14 94 -16 103 -2 3 6 -1 10 -9 10 -10 0 -16 9 -16 23 0 17 -2 19 -10
7 -7 -12 -12 -12 -22 -2 -18 18 -39 15 -31 -5z"/>
<path d="M3228 923 c6 -2 18 -2 25 0 6 3 1 5 -13 5 -14 0 -19 -2 -12 -5z"/>
<path d="M3676 914 c-3 -9 -4 -20 0 -25 3 -5 0 -9 -7 -9 -10 0 -10 -3 -2 -11
17 -17 48 -6 49 17 1 27 -32 50 -40 28z"/>
<path d="M3173 913 c9 -2 23 -2 30 0 6 3 -1 5 -18 5 -16 0 -22 -2 -12 -5z"/>
<path d="M23 865 c0 -22 2 -30 4 -17 2 12 2 30 0 40 -3 9 -5 -1 -4 -23z"/>
<path d="M3950 890 c8 -5 20 -10 25 -10 6 0 3 5 -5 10 -8 5 -19 10 -25 10 -5
0 -3 -5 5 -10z"/>
<path d="M2580 880 c0 -5 5 -10 10 -10 6 0 10 5 10 10 0 6 -4 10 -10 10 -5 0
-10 -4 -10 -10z"/>
<path d="M1808 843 c7 -3 16 -2 19 1 4 3 -2 6 -13 5 -11 0 -14 -3 -6 -6z"/>
<path d="M3660 835 c-14 -8 -19 -14 -10 -14 8 0 26 6 40 14 14 8 19 14 10 14
-8 0 -26 -6 -40 -14z"/>
<path d="M3822 830 c0 -14 2 -19 5 -12 2 6 2 18 0 25 -3 6 -5 1 -5 -13z"/>
<path d="M3661 784 c0 -11 3 -14 6 -6 3 7 2 16 -1 19 -3 4 -6 -2 -5 -13z"/>
<path d="M3030 770 c-8 -5 -10 -10 -5 -10 6 0 17 5 25 10 8 5 11 10 5 10 -5 0
-17 -5 -25 -10z"/>
<path d="M81 744 c0 -11 3 -14 6 -6 3 7 2 16 -1 19 -3 4 -6 -2 -5 -13z"/>
<path d="M2980 750 c-8 -5 -10 -10 -5 -10 6 0 17 5 25 10 8 5 11 10 5 10 -5 0
-17 -5 -25 -10z"/>
<path d="M3490 752 c-28 -13 -71 -45 -66 -49 3 -3 17 4 32 16 14 11 30 19 34
16 4 -3 10 2 14 10 3 8 4 15 3 14 -1 0 -9 -3 -17 -7z"/>
<path d="M3831 754 c0 -5 4 -18 8 -28 6 -17 8 -17 14 -3 3 8 -1 21 -9 27 -8 7
-14 9 -13 4z"/>
<path d="M3661 734 c0 -11 3 -14 6 -6 3 7 2 16 -1 19 -3 4 -6 -2 -5 -13z"/>
<path d="M3805 730 c10 -11 20 -20 23 -20 3 0 -3 9 -13 20 -10 11 -20 20 -23
20 -3 0 3 -9 13 -20z"/>
<path d="M1778 713 c7 -3 16 -2 19 1 4 3 -2 6 -13 5 -11 0 -14 -3 -6 -6z"/>
<path d="M3260 695 c-19 -7 -28 -14 -20 -14 8 0 29 6 45 14 39 17 21 18 -25 0z"/>
<path d="M3838 688 c7 -7 12 -23 13 -37 0 -15 3 -20 6 -13 7 19 -6 62 -19 62
-9 0 -9 -3 0 -12z"/>
<path d="M3343 659 c-35 -22 -46 -37 -15 -20 22 13 58 40 52 41 -3 0 -20 -10
-37 -21z"/>
<path d="M4400 636 c0 -2 7 -7 16 -10 8 -3 12 -2 9 4 -6 10 -25 14 -25 6z"/>
<path d="M3172 553 c-67 -42 -120 -78 -118 -80 3 -3 221 131 241 148 21 20 -6
5 -123 -68z"/>
<path d="M271 601 c-14 -4 -26 -12 -29 -20 -3 -9 4 -9 27 3 17 9 31 19 31 21
0 3 -1 5 -2 4 -2 -1 -14 -4 -27 -8z"/>
<path d="M1725 580 c3 -5 8 -10 11 -10 2 0 4 5 4 10 0 6 -5 10 -11 10 -5 0 -7
-4 -4 -10z"/>
<path d="M200 540 c0 -5 5 -10 11 -10 5 0 7 5 4 10 -3 6 -8 10 -11 10 -2 0 -4
-4 -4 -10z"/>
<path d="M277 480 c6 -22 23 -38 23 -21 0 17 -12 41 -20 41 -5 0 -6 -9 -3 -20z"/>
<path d="M1637 469 c7 -7 15 -10 18 -7 3 3 -2 9 -12 12 -14 6 -15 5 -6 -5z"/>
<path d="M3881 414 c0 -11 3 -14 6 -6 3 7 2 16 -1 19 -3 4 -6 -2 -5 -13z"/>
<path d="M3892 330 c0 -14 2 -19 5 -12 2 6 2 18 0 25 -3 6 -5 1 -5 -13z"/>
<path d="M4140 322 c0 -12 19 -26 26 -19 2 2 -2 10 -11 17 -9 8 -15 8 -15 2z"/>
<path d="M1430 281 c0 -9 -234 -14 -480 -12 -8 0 -49 1 -90 1 -41 1 -79 0 -85
-1 -5 0 -21 0 -34 1 -16 1 -21 -2 -16 -11 6 -8 4 -10 -6 -3 -26 16 -52 15 -72
-3 -19 -17 -20 -17 -14 0 9 25 2 21 -18 -9 -9 -15 -13 -24 -8 -21 5 3 20 0 34
-7 77 -40 219 -72 326 -75 97 -2 189 11 291 44 89 29 200 89 183 99 -6 4 -11
2 -11 -3z"/>
<path d="M515 260 c3 -5 8 -10 11 -10 2 0 4 5 4 10 0 6 -5 10 -11 10 -5 0 -7
-4 -4 -10z"/>
<path d="M591 261 c-8 -5 -9 -11 -3 -15 5 -3 12 1 16 9 6 17 6 18 -13 6z"/>
<path d="M600 162 c0 -10 58 -34 70 -30 5 1 -9 11 -30 20 -22 9 -40 13 -40 10z"/>
<path d="M755 36 c37 -25 89 -32 200 -26 74 5 92 7 55 9 -99 5 -154 11 -203
21 -64 13 -75 13 -52 -4z"/>
</g>
</svg>
